<svg width="235" height="235" viewBox="0 0 235 235" fill="none" xmlns="http://www.w3.org/2000/svg">
<rect width="235" height="235" fill="#0C0C12"/>
<path d="M121.8 194C103.8 194 88.4 191 75.6 185C62.8 178.8 53 169.9 46.2 158.3C39.4 146.7 36 132.6 36 116C36 99.4 39.4 85.3 46.2 73.7C53.2 62.1 62.9 53.3 75.3 47.3C87.9 41.1 102.5 38 119.1 38C136.1 38 150.5 41.1 162.3 47.3C174.3 53.3 183.4 61.8 189.6 72.8C195.8 83.8 198.9 96.6 198.9 111.2C198.9 114.4 198.7 117.7 198.3 121.1C198.1 124.5 197.8 127.2 197.4 129.2H80.4V103.7H167.4L134.7 116.6C134.7 105.8 133.7 97.6 131.7 92C129.9 86.4 125.8 83.6 119.4 83.6C115.2 83.6 111.7 84.6 108.9 86.6C106.3 88.6 104.4 92.1 103.2 97.1C102 101.9 101.4 108.6 101.4 117.2C101.4 125.8 102.2 132.4 103.8 137C105.4 141.4 107.7 144.4 110.7 146C113.9 147.4 117.9 148.1 122.7 148.1C127.9 148.1 131.9 147 134.7 144.8C137.7 142.4 139.7 139.2 140.7 135.2L196.2 150.2C194 160 189.1 168.2 181.5 174.8C173.9 181.2 164.8 186 154.2 189.2C143.8 192.4 133 194 121.8 194Z" fill="url(#paint0_linear_402_12)"/>
<defs>
<linearGradient id="paint0_linear_402_12" x1="19" y1="120" x2="228" y2="116" gradientUnits="userSpaceOnUse">
<stop stop-color="#4346FC"/>
<stop offset="1" stop-color="#BB5DF2"/>
</linearGradient>
</defs>
</svg>
